<svg aria-hidden="true" width="1397" height="400" viewBox="0 0 1397 400" fill="none" xmlns="http://www.w3.org/2000/svg"><path d="M120.471 389.686C158.038 389.686 175.73 368.349 190.472 338.881L256.815 205.512L290.723 326.876C303.992 374.024 321.683 389.468 354.882 389.468C382.893 389.468 409.485 378.554 427.832 332.769L477.957 209.713C480.906 324.638 564.23 399.782 676.985 399.782C781.659 399.782 867.167 326.112 882.674 231.814L900.366 330.532C907.737 371.078 926.903 389.468 960.047 389.468C989.532 389.468 1011.65 376.207 1027.86 345.812L1104.31 205.075L1134.56 331.514C1143.4 369.713 1160.33 389.686 1194.24 389.686C1223.01 389.686 1244.36 375.716 1259.11 346.958L1388.13 95.9344C1393.67 85.6874 1396.59 74.2364 1396.65 62.592C1396.65 33.1241 1373.83 10.3137 1339.92 10.3137C1312.62 10.3137 1289.79 26.6848 1276.53 55.225L1215.32 186.194L1182.88 57.2987C1175.51 28.5402 1159.29 10.15 1126.86 10.15C1106.22 10.15 1085.58 16.0436 1066.41 52.1145L996.194 187.121L972.606 58.9358C966.708 25.0477 943.12 10.3137 914.344 10.3137C906.687 10.0523 899.058 11.3541 891.921 14.1395C884.785 16.9249 878.292 21.1353 872.839 26.5135C867.386 31.8917 863.088 38.3247 860.207 45.4193C857.326 52.5139 855.922 60.1212 856.083 67.7762C856.015 74.1916 856.509 80.6007 857.557 86.9303L859.741 97.8444C831.02 43.2741 771.284 -0.38208 690.199 -0.38208C634.176 -0.38208 570.782 20.9549 531.85 72.5238C532.44 68.1296 532.678 63.6953 532.56 59.2632C531.85 31.2687 513.394 10.15 479.486 10.15C451.475 10.15 430.343 24.884 418.331 55.0613L364.656 195.907L329.055 58.9358C321.683 30.1773 307.214 10.3137 274.452 10.3137C249.389 10.3137 226.565 20.6275 210.348 56.6984L149.193 196.671L118.233 58.9358C110.861 25.0477 86.5629 10.3137 57.7871 10.3137C23.8787 10.3137 -0.41968 33.888 1.0546 67.7762C1.02889 72.7699 1.76539 77.7384 3.23872 82.5102L57.0773 322.619C65.1585 357.981 78.427 389.632 120.471 389.632V389.686ZM592.951 203.329C592.951 150.996 632.047 109.741 681.408 109.741C730.769 109.741 769.865 146.576 769.865 200.382C769.865 249.495 733.008 290.259 681.408 290.259C627.624 290.259 592.951 252.06 592.951 203.329Z" fill="white"/></svg>