<svg id="Layer_1" data-name="Layer 1" xmlns="http://www.w3.org/2000/svg" viewBox="0 0 1200 328.4"><defs><style>.cls-1,.cls-2,.cls-3{fill-rule:evenodd;}.cls-2{fill:#ffdbbb;}.cls-3{fill:#f96522;}</style></defs><title>Artboard 6</title><path id="t" d="M713.81,166.18H693.69V285.51H638.84V166.18H584.71v-46H736.82a134.84,134.84,0,0,0-23,46Z"/><polygon id="t-2" data-name="t" points="568.6 166.18 514.47 166.18 514.47 285.51 459.62 285.51 459.62 166.18 405.48 166.18 405.48 120.21 568.6 120.21 568.6 166.18 568.6 166.18 568.6 166.18"/><path id="a" class="cls-1" d="M426.95,285.51H368.67l-14.24-28.08H265.6l-13.42,28.08h-58.5l84.19-165.3h63.59l85.48,165.3ZM309.61,167.66l-23.76,49.08h48.2l-24.44-49.08Z"/><path id="z" d="M178.55,285.51H29.89a24.92,24.92,0,0,1-15.11-44.13l1.15-.88,98.73-75.64H21.32V120.21H177.4a24.91,24.91,0,0,1,14.67,44.93L93.41,240.86h85.13v44.65Z"/><path id="o" class="cls-1" d="M1037.13,228.82c1.19,7.89,8.86,14.34,18.86,15.34a444.05,444.05,0,0,0,63.32,0c10-1,17.7-7.47,18.88-15.38a247.86,247.86,0,0,0,0-51.87c-1.2-7.89-8.86-14.34-18.88-15.34a444.83,444.83,0,0,0-63.32,0c-10,1-17.7,7.47-18.86,15.38a245.08,245.08,0,0,0,0,51.87ZM1035.89,119a830.45,830.45,0,0,1,103.68.1c27.61,2.52,49.49,19.88,52.67,42.3a421.37,421.37,0,0,1,0,82.84c-3.19,22.42-25.06,39.78-52.67,42.3a830.46,830.46,0,0,1-103.68.1c-17.28-1.54-32.35-8.87-42-19.64a135.22,135.22,0,0,0,17-65.57,131.72,131.72,0,0,0-16.3-63.6c9.68-10.33,24.43-17.33,41.26-18.83Z"/><path id="inside" class="cls-2" d="M810.49,261.14h0c-1.73-.47-9.84-2.58-13.6-14.11-3.49-13.39-3.89-46.89-1.11-63.08,1.09-6.35,4.83-9.26,9.22-11.18,20.2-7.72,72.78-18.27,114.16-14.69,6.61.78,11.88,3.06,13.11,10.69h45C962.16,122.38,915.44,88.6,860.14,88.6c-67.56,0-122.32,50.43-122.32,112.65,0,45.94,29.86,85.45,72.68,103Z"/><path class="cls-3" d="M874.32,76.68l50.42-64.41A4.65,4.65,0,0,0,924,5.75l-4.08-3.2a4.65,4.65,0,0,0-6.53.79L856.43,76a147.53,147.53,0,0,0-15.71,1.16l-40.1-49.89a4.65,4.65,0,0,0-6.53-.72l-4,3.23a4.65,4.65,0,0,0-.72,6.55l35.22,43.82c-58.11,14.27-100.93,63.12-100.93,121.22,0,69.28,60.88,125.44,136,125.44s136-56.16,136-125.44C995.59,136.69,942.5,83.46,874.32,76.68ZM929,244.82c-3.45,16.11-10.29,22-27.34,23.35-28.28,2.21-68.44-1.94-91.68-6.74-9-1.81-14.1-3.15-21.22-5.25-9.51-2.81-17.07-8.42-20.17-22-3.53-17.43-4.64-46.12-1.38-69,1.94-10.09,8-18.15,17.82-21.42,21.75-8,77.62-18.87,120.92-15.15a26.55,26.55,0,0,1,23.61,22c1,5.52,1.72,11.68,2.28,18.21C933.93,194,933.25,222.93,929,244.82Z"/></svg>